<svg xmlns="http://www.w3.org/2000/svg" fill="none" viewBox="0 0 28.424 28.608695652173914" style="max-height: 500px" width="28.424" height="28.608695652173914">
<path fill="#DF1556" d="M23.4617 0.760574C23.2792 0.578128 23.0466 0.491466 22.8094 0.491466C22.5722 0.491466 22.3396 0.582689 22.1572 0.760574L18.6086 4.31372C18.49 3.26009 18.0247 2.23383 17.2129 1.4265C15.3109 -0.475502 12.2275 -0.475502 10.3255 1.4265C9.52273 2.22927 9.0575 3.24641 8.93434 4.29548L5.40856 0.760574C5.04823 0.400242 4.4644 0.400242 4.10407 0.760574C3.92618 0.93846 3.83496 1.17564 3.83496 1.41282C3.83496 1.65 3.92618 1.88718 4.10407 2.06507L10.061 8.02651C10.1431 8.12686 10.2343 8.22264 10.3301 8.31843C10.4258 8.41421 10.5216 8.50087 10.622 8.58754C11.3791 9.23066 12.2822 9.60924 13.2173 9.71414C13.5959 9.75519 13.979 9.75519 14.353 9.71414C15.3975 9.59099 16.4147 9.12575 17.2174 8.31843L23.4617 2.06507C23.822 1.70474 23.822 1.12091 23.4617 0.760574ZM15.8992 7.00025C14.7225 8.17703 12.8205 8.17703 11.6437 7.00025C10.4669 5.82347 10.4669 3.9169 11.6437 2.74012C12.8205 1.56334 14.7225 1.56334 15.8992 2.74012C17.076 3.9169 17.076 5.82347 15.8992 7.00025Z" clip-rule="evenodd" fill-rule="evenodd"/>
<path fill="#FCBE45" d="M27.2746 22.9095C27.2746 22.6723 27.1834 22.4351 27.0055 22.2573L23.4524 18.7087C24.506 18.5901 25.5323 18.1248 26.3396 17.313C28.2462 15.411 28.2462 12.3276 26.3396 10.4256C25.5368 9.62283 24.5197 9.15759 23.4706 9.03444L27.001 5.50866C27.3613 5.14833 27.3613 4.5645 27.001 4.20417C26.8231 4.02628 26.5859 3.93506 26.3487 3.93506C26.1115 3.93506 25.8743 4.02628 25.6965 4.20417L19.735 10.161C19.6347 10.2432 19.5389 10.3344 19.4431 10.4302C19.3473 10.5259 19.2607 10.6217 19.174 10.7221C18.5263 11.4792 18.1523 12.3823 18.0474 13.3174C18.0063 13.696 18.0063 14.0745 18.0474 14.4531C18.1705 15.4976 18.6358 16.5148 19.4431 17.3175L25.6965 23.5618C26.0568 23.9221 26.6406 23.9221 27.001 23.5618C27.1788 23.3839 27.2701 23.1467 27.2701 22.9095M25.026 11.7438C26.2028 12.9206 26.2028 14.8226 25.026 15.9993C23.8492 17.1761 21.9426 17.1761 20.7658 15.9993C19.5891 14.8226 19.5891 12.9206 20.7658 11.7438C21.9426 10.567 23.8492 10.567 25.026 11.7438Z" clip-rule="evenodd" fill-rule="evenodd"/>
<path fill="#00B173" d="M23.4613 25.7009L17.5045 19.7394C17.4223 19.6391 17.3311 19.5433 17.2353 19.4475C17.1396 19.3517 17.0438 19.2651 16.9434 19.1784C16.1863 18.5307 15.2832 18.1567 14.3481 18.0518C13.9695 18.0107 13.5864 18.0107 13.2124 18.0518C12.1679 18.1749 11.1507 18.6402 10.348 19.4475L4.10375 25.7009C3.74341 26.0612 3.74341 26.645 4.10375 27.0054C4.28619 27.1832 4.51881 27.2745 4.75599 27.2745C4.99317 27.2745 5.22579 27.1832 5.40824 27.0054L8.95683 23.4522C9.07542 24.5058 9.54065 25.5321 10.3525 26.3394C12.2545 28.2414 15.3379 28.2414 17.2399 26.3394C18.0427 25.5367 18.5079 24.5195 18.6311 23.4704L22.1568 27.0008C22.5172 27.3611 23.101 27.3611 23.4613 27.0008C23.6392 26.8229 23.7304 26.5857 23.7304 26.3485C23.7304 26.1114 23.6392 25.8742 23.4613 25.6963V25.7009ZM15.9217 25.0258C14.7449 26.2026 12.8429 26.2026 11.6662 25.0258C10.4894 23.849 10.4894 21.9425 11.6662 20.7657C12.8429 19.5889 14.7449 19.5889 15.9217 20.7657C17.0985 21.9425 17.0985 23.849 15.9217 25.0258Z" clip-rule="evenodd" fill-rule="evenodd"/>
<path fill="#00BFF2" d="M9.70958 13.313C9.58643 12.2685 9.12119 11.2513 8.31386 10.4486L2.06507 4.20433C1.70474 3.844 1.12091 3.844 0.760574 4.20433C0.578128 4.38222 0.491466 4.6194 0.491466 4.85658C0.491466 5.09376 0.582689 5.32638 0.760574 5.50882L4.31372 9.05741C3.26009 9.176 2.23383 9.64124 1.4265 10.4531C-0.475502 12.3551 -0.475502 15.4385 1.4265 17.3405C2.22927 18.1433 3.24641 18.6085 4.29548 18.7316L0.765136 22.2574C0.404803 22.6178 0.404803 23.2016 0.765136 23.5619C0.943021 23.7398 1.1802 23.831 1.41738 23.831C1.65456 23.831 1.89174 23.7398 2.06963 23.5619L8.03107 17.605C8.13142 17.5184 8.2272 17.4317 8.32299 17.3359C8.41877 17.2401 8.50543 17.1444 8.5921 17.044C9.23978 16.2869 9.6138 15.3837 9.7187 14.4487C9.75975 14.0701 9.75975 13.687 9.7187 13.3084L9.70958 13.313ZM7.00025 16.0223C5.82347 17.1991 3.9169 17.1991 2.74012 16.0223C1.56334 14.8455 1.56334 12.9435 2.74012 11.7667C3.9169 10.59 5.82347 10.59 7.00025 11.7667C8.17703 12.9435 8.17703 14.8455 7.00025 16.0223Z" clip-rule="evenodd" fill-rule="evenodd"/>
<path fill="white" d="M69.3212 16.4869C69.1109 16.0785 68.8634 15.5526 68.5788 14.9092C68.3065 14.2533 68.0219 13.517 67.7249 12.7003C67.4279 11.8713 67.1371 11.0051 66.8525 10.1017C66.9515 9.96561 67.0877 9.85425 67.2609 9.76763C67.4341 9.68101 67.6197 9.6377 67.8177 9.6377C68.0776 9.6377 68.288 9.69957 68.4488 9.82331C68.6221 9.94705 68.752 10.1636 68.8386 10.473C69.1851 11.4753 69.544 12.4714 69.9152 13.4614C70.2988 14.4513 70.7133 15.4722 71.1588 16.524H71.2331C71.4805 15.9919 71.7342 15.3484 71.9941 14.5936C72.2663 13.8388 72.52 13.0468 72.7551 12.2177C73.0026 11.3763 73.2068 10.5781 73.3676 9.82331C73.479 9.77381 73.5965 9.7305 73.7203 9.69338C73.8564 9.65626 73.9987 9.6377 74.1472 9.6377C74.3947 9.6377 74.6051 9.69957 74.7783 9.82331C74.9515 9.94705 75.0382 10.1389 75.0382 10.3987C75.0382 10.6338 74.9825 10.9927 74.8711 11.4753C74.7721 11.9455 74.6236 12.4838 74.4256 13.0901C74.24 13.6965 74.0235 14.3338 73.776 15.002C73.5285 15.6578 73.2624 16.3075 72.9778 16.9509C72.7056 17.582 72.4272 18.1574 72.1426 18.6771C71.5486 19.7537 71.0041 20.5766 70.5092 21.1458C70.0142 21.715 69.544 21.9996 69.0985 21.9996C68.7767 21.9996 68.5169 21.9068 68.3189 21.7212C68.1333 21.548 68.0219 21.3314 67.9848 21.0716C68.2447 20.8365 68.5354 20.5333 68.8572 20.1621C69.1913 19.8032 69.5068 19.4134 69.8038 18.9927C70.1132 18.572 70.3668 18.1698 70.5648 17.7862C70.3545 17.7243 70.1503 17.6068 69.9523 17.4335C69.7667 17.2603 69.5563 16.9447 69.3212 16.4869Z"/>
<path fill="white" d="M62.3697 11.7912V10.3434H66.2119C66.2614 10.4053 66.3047 10.4981 66.3418 10.6218C66.3913 10.7456 66.4161 10.8879 66.4161 11.0487C66.4161 11.2962 66.3542 11.4818 66.2305 11.6056C66.1191 11.7293 65.9521 11.7912 65.7293 11.7912H62.3697ZM62.6667 9.28538V11.5499H60.8848V9.19258C60.8848 8.45012 61.0271 7.84378 61.3117 7.37355C61.6087 6.90333 62.017 6.55684 62.5367 6.33411C63.0688 6.11137 63.6876 6 64.3929 6C65.1353 6 65.7108 6.09899 66.1191 6.29698C66.5275 6.49497 66.7316 6.76102 66.7316 7.09513C66.7316 7.25599 66.7007 7.40449 66.6388 7.5406C66.577 7.66435 66.4903 7.77572 66.379 7.87471C66.1562 7.76334 65.884 7.67053 65.5623 7.59629C65.2529 7.52204 64.9374 7.48492 64.6156 7.48492C63.9103 7.48492 63.4091 7.62722 63.1121 7.91183C62.8152 8.19644 62.6667 8.65429 62.6667 9.28538ZM60.8848 10.8074H62.7038V18.4362C62.6295 18.4609 62.5182 18.4919 62.3697 18.529C62.2212 18.5661 62.0603 18.5847 61.8871 18.5847C61.553 18.5847 61.2993 18.5228 61.1261 18.3991C60.9652 18.263 60.8848 18.0464 60.8848 17.7494V10.8074Z"/>
<path fill="white" d="M56.6709 7.13223C56.6709 6.83525 56.7761 6.58157 56.9864 6.37121C57.1968 6.16085 57.4629 6.05566 57.7846 6.05566C58.1187 6.05566 58.3847 6.16085 58.5827 6.37121C58.7931 6.58157 58.8983 6.83525 58.8983 7.13223C58.8983 7.44159 58.7931 7.70145 58.5827 7.91181C58.3847 8.1098 58.1187 8.2088 57.7846 8.2088C57.4629 8.2088 57.1968 8.1098 56.9864 7.91181C56.7761 7.70145 56.6709 7.44159 56.6709 7.13223ZM56.8751 13.5731H58.6941V18.4362C58.6199 18.4609 58.5085 18.4919 58.36 18.529C58.2115 18.5661 58.0444 18.5847 57.8588 18.5847C57.5371 18.5847 57.2896 18.5228 57.1164 18.3991C56.9555 18.2629 56.8751 18.0464 56.8751 17.7494V13.5731ZM58.6941 14.4826H56.8751V9.86077C56.9493 9.83602 57.0607 9.81127 57.2092 9.78652C57.37 9.7494 57.5433 9.73084 57.7289 9.73084C58.063 9.73084 58.3043 9.79271 58.4528 9.91645C58.6137 10.0402 58.6941 10.2567 58.6941 10.5661V14.4826Z"/>
<path fill="white" d="M54.7289 12.7746V14.6308H52.9099V12.8674C52.9099 12.2363 52.7305 11.7723 52.3716 11.4753C52.0127 11.1783 51.5363 11.0298 50.9424 11.0298C50.4969 11.0298 50.0947 11.0855 49.7359 11.1969C49.3894 11.3083 49.0862 11.4382 48.8264 11.5867V14.6308H47.0073V11.5681C47.0073 11.2959 47.063 11.0731 47.1744 10.8999C47.2981 10.7143 47.4837 10.541 47.7312 10.3802C48.0777 10.1698 48.5294 9.9842 49.0862 9.82334C49.6431 9.6501 50.2618 9.56348 50.9424 9.56348C52.1303 9.56348 53.0584 9.82952 53.7266 10.3616C54.3948 10.8937 54.7289 11.698 54.7289 12.7746ZM47.0073 13.6656H48.8264V18.4359C48.7521 18.4606 48.6407 18.4916 48.4922 18.5287C48.3438 18.5658 48.1829 18.5844 48.0096 18.5844C47.6755 18.5844 47.4219 18.5225 47.2486 18.3987C47.0878 18.2626 47.0073 18.0461 47.0073 17.7491V13.6656ZM52.9099 13.6656H54.7289V18.4359C54.6547 18.4606 54.5371 18.4916 54.3762 18.5287C54.2277 18.5658 54.0669 18.5844 53.8936 18.5844C53.5595 18.5844 53.312 18.5225 53.1512 18.3987C52.9903 18.2626 52.9099 18.0461 52.9099 17.7491V13.6656Z"/>
<path fill="white" d="M40.28 18.7333C39.3272 18.7333 38.5104 18.56 37.8299 18.2136C37.1616 17.8671 36.6481 17.3783 36.2893 16.7472C35.9428 16.1161 35.7695 15.3798 35.7695 14.5384V13.0906H37.6257V14.4084C37.6257 15.3241 37.8732 16.0171 38.3681 16.4873C38.8755 16.9576 39.5128 17.1927 40.28 17.1927C41.0348 17.1927 41.6659 16.9576 42.1732 16.4873C42.6806 16.0171 42.9343 15.3241 42.9343 14.4084V13.0906H44.7904V14.5384C44.7904 15.3798 44.611 16.1161 44.2521 16.7472C43.9057 17.3783 43.3921 17.8671 42.7115 18.2136C42.0433 18.56 41.2328 18.7333 40.28 18.7333ZM37.6257 13.7959H35.7695V7.22515C35.8438 7.2004 35.9613 7.16947 36.1222 7.13235C36.2831 7.09522 36.4501 7.07666 36.6234 7.07666C36.9698 7.07666 37.2235 7.14472 37.3844 7.28084C37.5452 7.40458 37.6257 7.62113 37.6257 7.93049V13.7959ZM44.7904 13.7959H42.9343V7.22515C43.0085 7.2004 43.1261 7.16947 43.2869 7.13235C43.4478 7.09522 43.6149 7.07666 43.7881 7.07666C44.1346 7.07666 44.3883 7.14472 44.5491 7.28084C44.71 7.40458 44.7904 7.62113 44.7904 7.93049V13.7959Z"/>
</svg>