<svg viewBox="0 89.586 416.1290666666667 105.462" version="1.1" xmlns="http://www.w3.org/2000/svg" style="max-height: 500px" width="416.1290666666667" height="105.462">
  <defs>
    <style>
      .cls-1 {
        fill: #faae1c;
      }

      .cls-1, .cls-2, .cls-3, .cls-4 {
        fill-rule: evenodd;
      }

      .cls-2 {
        fill: #00b173;
      }

      .cls-3 {
        fill: #15bff1;
      }

      .cls-5 {
        fill: #112369;
      }

      .cls-4 {
        fill: #eb1a5b;
      }
    </style>
  </defs>
  
  <g>
    <g id="Layer_1">
      <g>
        <g>
          <path d="M95.3,96.9c-.6-.6-1.4-.9-2.2-.9s-1.6.3-2.2.9l-12.1,12.1c-.4-3.6-2-7.1-4.8-9.9-6.5-6.5-17-6.5-23.5,0-2.7,2.7-4.3,6.2-4.8,9.8l-12.1-12.1c-1.2-1.2-3.2-1.2-4.5,0-.6.6-.9,1.4-.9,2.2s.3,1.6.9,2.2l20.4,20.4c.3.3.6.7.9,1,.3.3.7.6,1,.9,2.6,2.2,5.7,3.5,8.9,3.9,1.3.1,2.6.1,3.9,0,3.6-.4,7-2,9.8-4.8l21.4-21.4c1.2-1.2,1.2-3.2,0-4.5ZM69.5,118.2c-4,4-10.5,4-14.6,0-4-4-4-10.5,0-14.6,4-4,10.5-4,14.6,0,4,4,4,10.5,0,14.6Z" class="cls-4"/>
          <path d="M108.4,172.6c0-.8-.3-1.6-.9-2.2l-12.1-12.1c3.6-.4,7.1-2,9.9-4.8,6.5-6.5,6.5-17,0-23.5-2.7-2.7-6.2-4.3-9.8-4.8l12.1-12.1c1.2-1.2,1.2-3.2,0-4.5-.6-.6-1.4-.9-2.2-.9s-1.6.3-2.2.9l-20.4,20.4c-.3.3-.7.6-1,.9-.3.3-.6.7-.9,1-2.2,2.6-3.5,5.7-3.9,8.9-.1,1.3-.1,2.6,0,3.9.4,3.6,2,7,4.8,9.8l21.4,21.4c1.2,1.2,3.2,1.2,4.5,0,.6-.6.9-1.4.9-2.2M100.7,134.4c4,4,4,10.5,0,14.6-4,4-10.5,4-14.6,0-4-4-4-10.5,0-14.6,4-4,10.5-4,14.6,0" class="cls-1"/>
          <path d="M95.3,182.1l-20.4-20.4c-.3-.3-.6-.7-.9-1-.3-.3-.7-.6-1-.9-2.6-2.2-5.7-3.5-8.9-3.9-1.3-.1-2.6-.1-3.9,0-3.6.4-7,2-9.8,4.8l-21.4,21.4c-1.2,1.2-1.2,3.2,0,4.5.6.6,1.4.9,2.2.9s1.6-.3,2.2-.9l12.1-12.1c.4,3.6,2,7.1,4.8,9.9,6.5,6.5,17,6.5,23.5,0,2.7-2.7,4.3-6.2,4.8-9.8l12.1,12.1c1.2,1.2,3.2,1.2,4.5,0,.6-.6.9-1.4.9-2.2s-.3-1.6-.9-2.2ZM69.6,179.8c-4,4-10.5,4-14.6,0-4-4-4-10.5,0-14.6,4-4,10.5-4,14.6,0,4,4,4,10.5,0,14.6Z" class="cls-2"/>
          <path d="M48.3,139.8c-.4-3.6-2-7-4.8-9.8l-21.4-21.4c-1.2-1.2-3.2-1.2-4.5,0-.6.6-.9,1.4-.9,2.2s.3,1.6.9,2.2l12.1,12.1c-3.6.4-7.1,2-9.9,4.8-6.5,6.5-6.5,17,0,23.6,2.7,2.7,6.2,4.3,9.8,4.8l-12.1,12.1c-1.2,1.2-1.2,3.2,0,4.5.6.6,1.4.9,2.2.9s1.6-.3,2.2-.9l20.4-20.4c.3-.3.7-.6,1-.9.3-.3.6-.7.9-1,2.2-2.6,3.5-5.7,3.9-8.9.1-1.3.1-2.6,0-3.9ZM39.1,149c-4,4-10.5,4-14.6,0-4-4-4-10.5,0-14.6,4-4,10.5-4,14.6,0,4,4,4,10.5,0,14.6Z" class="cls-3"/>
        </g>
        <g>
          <path d="M179.7,141.7c0,4-.6,7.6-1.8,10.7-1.2,3.1-2.8,5.7-4.9,7.7-2.1,2.1-4.5,3.6-7.3,4.7-2.8,1.1-5.9,1.6-9.2,1.6s-6.4-.5-9.2-1.6c-2.8-1.1-5.3-2.6-7.3-4.7-2-2.1-3.7-4.7-4.8-7.7-1.2-3.1-1.8-6.6-1.8-10.7s.6-7.6,1.8-10.7c1.2-3.1,2.8-5.6,4.9-7.7,2.1-2.1,4.5-3.7,7.3-4.7,2.8-1.1,5.8-1.6,9.1-1.6s6.3.5,9.1,1.6c2.8,1.1,5.2,2.6,7.3,4.7,2.1,2.1,3.7,4.7,4.9,7.7,1.2,3.1,1.8,6.6,1.8,10.7ZM171.3,141.7c0-5.8-1.3-10.2-4-13.3-2.6-3-6.2-4.5-10.6-4.5s-7.9,1.5-10.5,4.6c-2.7,3.1-4,7.5-4,13.2s1.3,10.2,4,13.3c2.6,3.1,6.2,4.6,10.6,4.6s8-1.5,10.6-4.6c2.6-3.1,4-7.5,4-13.3Z" class="cls-5"/>
          <path d="M208.3,136.2c-1.4-1.2-3.4-1.8-5.8-1.8s-3.4.2-4.9.7c-1.4.5-2.7,1-3.7,1.6v28.5c-.4.2-.9.3-1.5.4-.6.1-1.4.2-2.1.2-1.5,0-2.6-.3-3.3-.9-.7-.6-1.1-1.5-1.1-2.9v-25.7c0-1.2.2-2.2.7-2.9.5-.7,1.2-1.5,2.3-2.2,1.5-.9,3.3-1.7,5.7-2.4,2.3-.7,5-1.1,7.9-1.1,5,0,9,1.1,11.8,3.4,2.9,2.3,4.3,5.7,4.3,10.2v23.7c-.4.2-.9.3-1.6.4-.7.1-1.4.2-2.2.2-1.5,0-2.6-.3-3.3-.9-.7-.6-1.1-1.5-1.1-2.9v-20.3c0-2.5-.7-4.4-2.1-5.6Z" class="cls-5"/>
          <path d="M232.5,151.3c.7,3,2.1,5.1,4.2,6.6,2.1,1.4,4.8,2.1,8,2.1s4.2-.3,6-1c1.8-.7,3.3-1.4,4.4-2.2,1.5.8,2.2,2,2.2,3.5s-.3,1.7-1,2.4c-.7.8-1.6,1.4-2.8,1.9-1.2.5-2.5,1-4.1,1.3-1.6.3-3.3.5-5.1.5-3,0-5.7-.4-8.2-1.2-2.5-.8-4.6-2.1-6.3-3.7-1.8-1.7-3.1-3.7-4.1-6.1-1-2.4-1.4-5.3-1.4-8.5s.5-5.8,1.4-8.2c.9-2.4,2.2-4.3,3.8-5.9,1.6-1.6,3.5-2.8,5.7-3.6,2.2-.8,4.5-1.2,7-1.2s4.8.4,6.8,1.2c2,.8,3.8,1.9,5.3,3.3,1.5,1.4,2.6,3.1,3.4,5.1.8,2,1.2,4.1,1.2,6.5s-.3,2.2-.9,2.8c-.6.6-1.5,1-2.7,1.2l-22.7,3.3ZM242.2,134.2c-2.9,0-5.2,1-7.1,2.9-1.9,1.9-2.9,4.7-3,8.2l19.1-2.7c-.2-2.3-1.1-4.3-2.6-5.9-1.5-1.6-3.7-2.4-6.5-2.4Z" class="cls-5"/>
          <path d="M266.3,164.2c-.8-.8-1.2-1.9-1.2-3.3v-42.8c.4-.1,1-.2,1.7-.3.7-.1,1.4-.2,2.2-.2,1.5,0,2.6.3,3.4.9.8.6,1.1,1.6,1.1,3v36.9h21.1c.3.4.5.8.7,1.4.2.6.3,1.2.3,1.9,0,1.2-.3,2.1-.9,2.7-.6.6-1.3.9-2.3.9h-22.9c-1.3,0-2.4-.4-3.3-1.2Z" class="cls-5"/>
          <path d="M305.7,151.3c.7,3,2.1,5.1,4.2,6.6,2.1,1.4,4.8,2.1,8,2.1s4.2-.3,6-1c1.8-.7,3.3-1.4,4.4-2.2,1.5.8,2.2,2,2.2,3.5s-.3,1.7-1,2.4c-.7.8-1.6,1.4-2.8,1.9-1.2.5-2.5,1-4.1,1.3-1.6.3-3.3.5-5.1.5-3,0-5.7-.4-8.2-1.2-2.5-.8-4.6-2.1-6.3-3.7-1.8-1.7-3.1-3.7-4.1-6.1-1-2.4-1.4-5.3-1.4-8.5s.5-5.8,1.4-8.2c.9-2.4,2.2-4.3,3.8-5.9,1.6-1.6,3.5-2.8,5.7-3.6,2.2-.8,4.5-1.2,7-1.2s4.8.4,6.8,1.2c2,.8,3.8,1.9,5.3,3.3,1.5,1.4,2.6,3.1,3.4,5.1.8,2,1.2,4.1,1.2,6.5s-.3,2.2-.9,2.8c-.6.6-1.5,1-2.7,1.2l-22.7,3.3ZM315.3,134.2c-2.9,0-5.2,1-7.1,2.9-1.9,1.9-2.9,4.7-3,8.2l19.1-2.7c-.2-2.3-1.1-4.3-2.6-5.9-1.5-1.6-3.7-2.4-6.5-2.4Z" class="cls-5"/>
          <path d="M345.3,165.2c-.4.2-.9.3-1.5.4-.6.1-1.4.2-2.1.2-1.5,0-2.6-.3-3.3-.9-.7-.6-1.1-1.5-1.1-2.9v-25.5c0-1.3.3-2.3.8-3.1.5-.8,1.3-1.6,2.5-2.3,1.5-.9,3.4-1.7,5.8-2.3,2.3-.6,4.9-.9,7.7-.9,4.6,0,6.8,1.3,6.8,3.9s-.1,1.2-.3,1.7c-.2.5-.4,1-.7,1.4-.5-.1-1.2-.2-1.9-.3-.8-.1-1.6-.2-2.5-.2-2.1,0-4,.2-5.7.7-1.7.4-3.2,1-4.4,1.7v28.4Z" class="cls-5"/>
          <path d="M386.4,136.2c-1.4-1.2-3.4-1.8-5.8-1.8s-3.4.2-4.9.7c-1.4.5-2.7,1-3.7,1.6v28.5c-.4.2-.9.3-1.5.4-.6.1-1.4.2-2.1.2-1.5,0-2.6-.3-3.3-.9-.7-.6-1.1-1.5-1.1-2.9v-25.7c0-1.2.2-2.2.7-2.9.5-.7,1.2-1.5,2.3-2.2,1.5-.9,3.3-1.7,5.7-2.4,2.3-.7,5-1.1,7.9-1.1,5,0,9,1.1,11.8,3.4,2.9,2.3,4.3,5.7,4.3,10.2v23.7c-.4.2-.9.3-1.6.4-.7.1-1.4.2-2.2.2-1.5,0-2.6-.3-3.3-.9-.7-.6-1.1-1.5-1.1-2.9v-20.3c0-2.5-.7-4.4-2.1-5.6Z" class="cls-5"/>
        </g>
        <path d="M409.6,123.7c-.3-.8-.8-1.5-1.3-2.2-.6-.6-1.3-1.1-2.1-1.4-.9-.3-1.8-.5-2.8-.5s-1.9.2-2.7.5c-.8.3-1.5.8-2.1,1.4-.6.6-1,1.3-1.3,2.2-.3.8-.5,1.7-.5,2.7s.1,1.9.5,2.7c.3.8.8,1.5,1.3,2.1.6.6,1.3,1.1,2.1,1.4.8.3,1.7.5,2.7.5s1.9-.2,2.8-.5c.8-.3,1.5-.8,2.1-1.4.6-.6,1-1.3,1.3-2.1.3-.8.5-1.7.5-2.7s-.2-1.9-.5-2.7ZM406.5,130c-.2.1-.4.2-.7.2-.4,0-.8-.2-1.1-.7l-1.5-2.1h-.9v2.7c-.2,0-.5,0-.9,0s-.5,0-.7-.1c-.1,0-.2-.3-.2-.7v-6.3c0-.3.3-.5.7-.6.3,0,.6-.1.9-.1.3,0,.6,0,.9,0,1.1,0,2,.2,2.6.7.6.4.9,1.1.9,1.9s-.1,1.1-.5,1.5c-.3.4-.7.7-1.2.8l1.9,2.4c0,.2-.2.3-.3.5ZM403.3,123.7c-.1,0-.3,0-.5,0s-.3,0-.4,0v2.2h1.1c.9,0,1.3-.4,1.3-1.2s-.1-.6-.4-.8c-.3-.2-.7-.3-1.1-.3Z" class="cls-5"/>
      </g>
    </g>
  </g>
</svg>